<mxfile host="app.diagrams.net" modified="2023-05-22T14:27:23.193Z" agent="Mozilla/5.0 (Windows NT 10.0; Win64; x64) AppleWebKit/537.36 (KHTML, like Gecko) Chrome/113.0.0.0 Safari/537.36" etag="Y2h0XATPXwrAROUZLPP7" version="21.3.2" type="device">
  <diagram id="ynweCokXJDtzGCUotfhs" name="Page-1">
    <mxGraphModel dx="1050" dy="541" grid="1" gridSize="10" guides="1" tooltips="1" connect="1" arrows="1" fold="1" page="1" pageScale="1" pageWidth="827" pageHeight="1169" math="0" shadow="0">
      <root>
        <mxCell id="0" />
        <mxCell id="1" parent="0" />
        <mxCell id="w-XO-UCnM8_72CCTHJjW-13" style="edgeStyle=orthogonalEdgeStyle;rounded=0;orthogonalLoop=1;jettySize=auto;html=1;exitX=0.5;exitY=1;exitDx=0;exitDy=0;entryX=0.5;entryY=0;entryDx=0;entryDy=0;" edge="1" parent="1" source="w-XO-UCnM8_72CCTHJjW-1" target="w-XO-UCnM8_72CCTHJjW-11">
          <mxGeometry relative="1" as="geometry" />
        </mxCell>
        <mxCell id="w-XO-UCnM8_72CCTHJjW-1" value="&lt;font style=&quot;font-size: 14px;&quot;&gt;TextSummarizer&lt;/font&gt;" style="rounded=1;whiteSpace=wrap;html=1;" vertex="1" parent="1">
          <mxGeometry x="320" y="40" width="160" height="60" as="geometry" />
        </mxCell>
        <mxCell id="w-XO-UCnM8_72CCTHJjW-15" style="edgeStyle=orthogonalEdgeStyle;rounded=0;orthogonalLoop=1;jettySize=auto;html=1;exitX=0.5;exitY=1;exitDx=0;exitDy=0;entryX=0.5;entryY=0;entryDx=0;entryDy=0;" edge="1" parent="1" source="w-XO-UCnM8_72CCTHJjW-3" target="w-XO-UCnM8_72CCTHJjW-6">
          <mxGeometry relative="1" as="geometry" />
        </mxCell>
        <mxCell id="w-XO-UCnM8_72CCTHJjW-3" value="&lt;font style=&quot;font-size: 14px;&quot;&gt;Preprocess Text&lt;/font&gt;" style="rounded=1;whiteSpace=wrap;html=1;" vertex="1" parent="1">
          <mxGeometry x="340" y="500" width="120" height="50" as="geometry" />
        </mxCell>
        <mxCell id="w-XO-UCnM8_72CCTHJjW-17" style="edgeStyle=orthogonalEdgeStyle;rounded=0;orthogonalLoop=1;jettySize=auto;html=1;exitX=0.5;exitY=1;exitDx=0;exitDy=0;entryX=0.5;entryY=0;entryDx=0;entryDy=0;" edge="1" parent="1" source="w-XO-UCnM8_72CCTHJjW-4" target="w-XO-UCnM8_72CCTHJjW-5">
          <mxGeometry relative="1" as="geometry" />
        </mxCell>
        <mxCell id="w-XO-UCnM8_72CCTHJjW-4" value="&lt;font style=&quot;font-size: 14px;&quot;&gt;Generate Summary&lt;/font&gt;" style="rounded=1;whiteSpace=wrap;html=1;" vertex="1" parent="1">
          <mxGeometry x="330" y="680" width="140" height="50" as="geometry" />
        </mxCell>
        <mxCell id="w-XO-UCnM8_72CCTHJjW-5" value="&lt;font style=&quot;font-size: 14px;&quot;&gt;Display Summary&lt;/font&gt;" style="rounded=1;whiteSpace=wrap;html=1;" vertex="1" parent="1">
          <mxGeometry x="330" y="770" width="140" height="50" as="geometry" />
        </mxCell>
        <mxCell id="w-XO-UCnM8_72CCTHJjW-16" style="edgeStyle=orthogonalEdgeStyle;rounded=0;orthogonalLoop=1;jettySize=auto;html=1;exitX=0.5;exitY=1;exitDx=0;exitDy=0;entryX=0.5;entryY=0;entryDx=0;entryDy=0;" edge="1" parent="1" source="w-XO-UCnM8_72CCTHJjW-6" target="w-XO-UCnM8_72CCTHJjW-4">
          <mxGeometry relative="1" as="geometry" />
        </mxCell>
        <mxCell id="w-XO-UCnM8_72CCTHJjW-6" value="&lt;font style=&quot;font-size: 14px;&quot;&gt;Text Extraction&lt;/font&gt;" style="rounded=1;whiteSpace=wrap;html=1;" vertex="1" parent="1">
          <mxGeometry x="340" y="590" width="120" height="50" as="geometry" />
        </mxCell>
        <mxCell id="w-XO-UCnM8_72CCTHJjW-14" style="edgeStyle=orthogonalEdgeStyle;rounded=0;orthogonalLoop=1;jettySize=auto;html=1;exitX=0.5;exitY=1;exitDx=0;exitDy=0;entryX=0.5;entryY=0;entryDx=0;entryDy=0;" edge="1" parent="1" source="w-XO-UCnM8_72CCTHJjW-7" target="w-XO-UCnM8_72CCTHJjW-3">
          <mxGeometry relative="1" as="geometry" />
        </mxCell>
        <mxCell id="w-XO-UCnM8_72CCTHJjW-7" value="&lt;font style=&quot;font-size: 14px;&quot;&gt;Input File Read&lt;/font&gt;" style="rounded=1;whiteSpace=wrap;html=1;" vertex="1" parent="1">
          <mxGeometry x="335" y="400" width="130" height="50" as="geometry" />
        </mxCell>
        <mxCell id="w-XO-UCnM8_72CCTHJjW-20" style="edgeStyle=orthogonalEdgeStyle;rounded=0;orthogonalLoop=1;jettySize=auto;html=1;exitX=0.5;exitY=1;exitDx=0;exitDy=0;entryX=0.5;entryY=0;entryDx=0;entryDy=0;" edge="1" parent="1" source="w-XO-UCnM8_72CCTHJjW-8" target="w-XO-UCnM8_72CCTHJjW-10">
          <mxGeometry relative="1" as="geometry" />
        </mxCell>
        <mxCell id="w-XO-UCnM8_72CCTHJjW-21" style="edgeStyle=orthogonalEdgeStyle;rounded=0;orthogonalLoop=1;jettySize=auto;html=1;exitX=0.5;exitY=1;exitDx=0;exitDy=0;entryX=0.5;entryY=0;entryDx=0;entryDy=0;" edge="1" parent="1" source="w-XO-UCnM8_72CCTHJjW-8" target="w-XO-UCnM8_72CCTHJjW-9">
          <mxGeometry relative="1" as="geometry" />
        </mxCell>
        <mxCell id="w-XO-UCnM8_72CCTHJjW-8" value="&lt;font style=&quot;font-size: 14px;&quot;&gt;Select Options&lt;/font&gt;" style="rounded=1;whiteSpace=wrap;html=1;" vertex="1" parent="1">
          <mxGeometry x="340" y="220" width="120" height="40" as="geometry" />
        </mxCell>
        <mxCell id="w-XO-UCnM8_72CCTHJjW-19" style="edgeStyle=orthogonalEdgeStyle;rounded=0;orthogonalLoop=1;jettySize=auto;html=1;exitX=0.5;exitY=1;exitDx=0;exitDy=0;" edge="1" parent="1" source="w-XO-UCnM8_72CCTHJjW-9">
          <mxGeometry relative="1" as="geometry">
            <mxPoint x="400" y="400" as="targetPoint" />
          </mxGeometry>
        </mxCell>
        <mxCell id="w-XO-UCnM8_72CCTHJjW-9" value="&lt;font style=&quot;font-size: 14px;&quot;&gt;Choose Algorithm&lt;/font&gt;" style="rounded=1;whiteSpace=wrap;html=1;" vertex="1" parent="1">
          <mxGeometry x="520" y="300" width="140" height="50" as="geometry" />
        </mxCell>
        <mxCell id="w-XO-UCnM8_72CCTHJjW-18" style="edgeStyle=orthogonalEdgeStyle;rounded=0;orthogonalLoop=1;jettySize=auto;html=1;exitX=0.5;exitY=1;exitDx=0;exitDy=0;" edge="1" parent="1" source="w-XO-UCnM8_72CCTHJjW-10" target="w-XO-UCnM8_72CCTHJjW-7">
          <mxGeometry relative="1" as="geometry" />
        </mxCell>
        <mxCell id="w-XO-UCnM8_72CCTHJjW-10" value="&lt;font style=&quot;font-size: 14px;&quot;&gt;Choose Percentage&lt;/font&gt;" style="rounded=1;whiteSpace=wrap;html=1;" vertex="1" parent="1">
          <mxGeometry x="140" y="300" width="140" height="50" as="geometry" />
        </mxCell>
        <mxCell id="w-XO-UCnM8_72CCTHJjW-12" value="" style="edgeStyle=orthogonalEdgeStyle;rounded=0;orthogonalLoop=1;jettySize=auto;html=1;" edge="1" parent="1" source="w-XO-UCnM8_72CCTHJjW-11" target="w-XO-UCnM8_72CCTHJjW-8">
          <mxGeometry relative="1" as="geometry" />
        </mxCell>
        <mxCell id="w-XO-UCnM8_72CCTHJjW-11" value="&lt;font style=&quot;font-size: 14px;&quot;&gt;Upload Text Documents&lt;/font&gt;" style="rounded=1;whiteSpace=wrap;html=1;" vertex="1" parent="1">
          <mxGeometry x="310" y="140" width="180" height="40" as="geometry" />
        </mxCell>
      </root>
    </mxGraphModel>
  </diagram>
</mxfile>
